# xmcd
#
# Track frame offsets: 
#        183
#        24908
#        37020
#        54858
#        65470
#        77483
#        98820
#        114533
#        129495
#        153495
#        166033
#        185508
#        198433
#        219583
#        232633
#
# Disc length: 3445 seconds
#
# Revision: 0
# Processed by: cddbd v1.5.2PL0 Copyright (c) Steve Scherf et al.
# Submitted via: ExactAudioCopy v0.95b4
#
DISCID=b60d730f
DTITLE=Jodlerklub "Burghalde" Aarburg - A dr Aarewoog
DYEAR=1900
DGENRE=Folklore
TTITLE0=Mejezyt
TTITLE1=My Teddybär
TTITLE2=Über der Flüeh
TTITLE3=Abfahrt-Jödeli
TTITLE4=Im Europapark
TTITLE5=I Abed gsunge
TTITLE6=Im Gitzibode
TTITLE7=z'Studio Hedy
TTITLE8=Morgelied
TTITLE9=Am Bärgheuet
TTITLE10=Mues juchzge
TTITLE11=Es tänzli für ds Schätzli
TTITLE12=Vo de Flüeh abe
TTITLE13=Urnerbodä-Kafi
TTITLE14=Soldanelle
EXTD=
EXTT0=
EXTT1=
EXTT2=
EXTT3=
EXTT4=
EXTT5=
EXTT6=
EXTT7=
EXTT8=
EXTT9=
EXTT10=
EXTT11=
EXTT12=
EXTT13=
EXTT14=
PLAYORDER=
